<?xml version="1.0" encoding="utf-8"?>
<!-- Generator: Adobe Illustrator 24.1.1, SVG Export Plug-In . SVG Version: 6.00 Build 0)  -->
<svg version="1.1" id="Layer_1" xmlns="http://www.w3.org/2000/svg" xmlns:xlink="http://www.w3.org/1999/xlink" x="0px" y="0px"
	 viewBox="0 0 840 252" style="enable-background:new 0 0 840 252;" xml:space="preserve">
<style type="text/css">
	.st0{fill:#F8E827;}
	.st1{fill:#041913;}
	.st2{fill:url(#SVGID_1_);}
</style>
<g>
	<path class="st0" d="M185.8,69.1c-0.7,3.1-1.3,6.3-2.1,9.4c-0.8,3.1-1.5,6.2-2.3,9.3L179,97l-2.7,9.2l-0.8,2.6l-3.6,0.6
		c-6.3,1.1-12.7,1.9-19.1,2.8c-6.4,1-12.7,1.6-19.1,2.3l-9.6,1.1l-9.6,0.9c-6.4,0.5-12.8,1.2-19.2,1.6l7-5.8L97,131.2
		c-1.9,6.3-4,12.5-6,18.7l-1.5,4.7l-1.6,4.6l-3.3,9.3c-1.1,3.1-2.2,6.2-3.4,9.3l-3.5,9.2l-1.1,2.8l-2.2,0.2l-7.9,0.6
		c-2.6,0.2-5.3,0.4-7.9,0.6l-7.9,0.4l-8,0.2l-0.1,0c-0.2,0-0.4-0.2-0.5-0.4c0-0.2,0.2-0.4,0.4-0.4l31-5.7l-0.4,0.4L94,110l0.2-0.6
		l0.6,0l76.7-5.6l-0.5,0.4L185,68.8c0.1-0.2,0.3-0.3,0.6-0.2C185.8,68.6,185.9,68.9,185.8,69.1L185.8,69.1z"/>
	<path class="st1" d="M302.8,172.5c-2,0-3.4-1.2-4.1-3.5l-26.2-81.3c-0.4-1.3-0.2-2.6,0.6-3.9c0.8-1.3,2-2,3.6-2
		c0.9,0,1.8,0.3,2.5,0.8c0.7,0.5,1.3,1.3,1.6,2.5l23.9,74.3h-2.3l22.7-74c0.4-1.2,1-2.2,2-2.7c0.9-0.6,1.9-0.9,2.9-0.9
		c1.1,0,2.1,0.3,3.1,0.9c1,0.6,1.6,1.5,1.9,2.7l22.7,74h-2.4l23.9-74.3c0.4-1.1,0.9-1.9,1.6-2.4c0.7-0.5,1.5-0.8,2.4-0.8
		c1.7,0,2.9,0.6,3.7,1.8c0.8,1.2,0.9,2.5,0.5,4L361.1,169c-0.7,2.3-2.3,3.5-4.6,3.5h-0.3c-2.4,0-3.9-1.2-4.6-3.5l-23.2-74.8h2.4
		L307.6,169c-0.4,1.3-0.9,2.2-1.7,2.7C305.2,172.3,304.1,172.5,302.8,172.5z M416,172.5c-2.9,0-4.4-1.5-4.4-4.4V86.3
		c0-2.9,1.5-4.4,4.4-4.4h51.1c2.9,0,4.4,1.5,4.4,4.4c0,2.9-1.5,4.4-4.4,4.4h-46.7v31.7h30.4c2.9,0,4.4,1.5,4.4,4.4
		c0,2.9-1.5,4.4-4.4,4.4h-30.4v32.8h46.7c2.9,0,4.4,1.5,4.4,4.4s-1.5,4.4-4.4,4.4H416z M559.7,172.7c-1.2,0.7-2.2,1-3.3,0.7
		c-1-0.3-1.9-1-2.7-2.1l-22.3-35.9h-23.4v32.8c0,2.9-1.5,4.4-4.4,4.4s-4.4-1.5-4.4-4.4V86.3c0-2.9,1.5-4.4,4.4-4.4h32.3
		c8.1,0,14.2,2.1,18.4,6.3c4.2,4.2,6.3,10.3,6.3,18.4v4.1c0,7.1-1.6,12.6-4.9,16.7c-3.2,4.1-8,6.6-14.3,7.5l19.6,31.8
		C562.7,169.2,562.2,171.2,559.7,172.7z M508.2,126.7h28c5.7,0,9.7-1.3,12.2-3.8c2.5-2.5,3.7-6.6,3.7-12.2v-4.1
		c0-5.6-1.2-9.7-3.7-12.2c-2.5-2.5-6.6-3.8-12.2-3.8h-28V126.7z M614.3,172.4c-8.1,0-14.2-1.8-18.4-5.3c-4.1-3.5-6.5-9-7-16.4
		c-0.1-1.4,0.2-2.5,1-3.3c0.8-0.8,1.9-1.2,3.3-1.2c1.4,0,2.4,0.4,3.1,1.1c0.7,0.7,1.2,1.8,1.3,3.2c0.3,4.9,1.7,8.4,4.2,10.3
		c2.5,1.9,6.6,2.9,12.4,2.9h19.9c6.4,0,10.7-1.2,13.1-3.6c2.4-2.4,3.6-6.8,3.6-13c0-6.4-1.2-10.7-3.7-13.2
		c-2.4-2.4-6.8-3.6-13.1-3.6h-18.3c-8.3,0-14.5-2-18.4-5.9c-3.9-3.9-5.9-10.1-5.9-18.4c0-8.3,1.9-14.4,5.8-18.3
		c3.9-3.9,10-5.8,18.3-5.8h18.4c7.6,0,13.4,1.6,17.2,4.9c3.9,3.3,6.1,8.4,6.7,15.4c0.1,1.4-0.2,2.5-1,3.3c-0.8,0.8-1.9,1.2-3.3,1.2
		c-1.4,0-2.4-0.4-3.2-1.1c-0.7-0.8-1.2-1.8-1.3-3.1c-0.4-4.5-1.7-7.6-4-9.3c-2.3-1.7-6-2.6-11.2-2.6h-18.4c-5.9,0-9.9,1.1-12.1,3.4
		c-2.2,2.2-3.3,6.3-3.3,12.1c0,5.8,1.1,9.8,3.4,12.1s6.3,3.4,12.2,3.4h18.3c8.7,0,15.1,2.1,19.3,6.2c4.1,4.1,6.2,10.6,6.2,19.3
		c0,8.7-2.1,15.1-6.2,19.2c-4.1,4.1-10.6,6.2-19.3,6.2H614.3z M696.8,172.5c-2.9,0-4.4-1.5-4.4-4.4V86.3c0-2.9,1.5-4.4,4.4-4.4h51.1
		c2.9,0,4.4,1.5,4.4,4.4c0,2.9-1.5,4.4-4.4,4.4h-46.7v31.7h30.4c2.9,0,4.4,1.5,4.4,4.4c0,2.9-1.5,4.4-4.4,4.4h-30.4v32.8h46.7
		c2.9,0,4.4,1.5,4.4,4.4s-1.5,4.4-4.4,4.4H696.8z M784.6,172.5c-2.9,0-4.4-1.5-4.4-4.4V86.3c0-2.9,1.5-4.4,4.4-4.4s4.4,1.5,4.4,4.4
		v77.6h40.8c2.9,0,4.4,1.5,4.4,4.4s-1.5,4.4-4.4,4.4H784.6z"/>
	<linearGradient id="SVGID_1_" gradientUnits="userSpaceOnUse" x1="5.9343" y1="126" x2="221.9343" y2="126">
		<stop  offset="0" style="stop-color:#64B07A"/>
		<stop  offset="1" style="stop-color:#6FC3D6"/>
	</linearGradient>
	<path class="st2" d="M180.7,42.1l-48.6-30.3c-8.7-5.4-19.6-5.8-28.6-1L24.1,53.2C15.1,58,9.3,67.2,9,77.4l-3,89.9
		c-0.3,9,3.6,17.5,10.5,23.2c0.3-4.6,4.1-8.2,8.8-8.2c2.3,0,4.4,0.9,5.9,2.3c1.1,1,2.6,1.4,4.1,1c9.4-2.3,19-2.6,28.5-3.7
		c1.6-0.2,3.2-0.3,4.7-0.5l16.3-52.7h0l2.5-8l1.7-5.5l1.4-4.5l1.3-4.1c0.1,0,0.2,0,0.3,0c1.2-0.1,2.4-0.2,3.6-0.4l7.3-0.7l6.7-0.6
		c7.5-0.7,15-1.4,22.5-2c11.1-0.8,22.1-1.7,33.2-2.5l13.1-42.1c0.4-1.3,0.2-2.7-0.5-3.9c-0.8-1.3-1.3-3-1.3-4.7
		C176.6,46.4,178.2,43.7,180.7,42.1z M78.9,111.5l-1.4,4.5L65.3,117l-22.5,1.8c-1.3,0.1-2.5-0.9-2.6-2.2c-0.1-1.2,0.6-2.2,1.7-2.5
		l0.6-0.2c0.4-0.2,0.9-0.3,1.4-0.4c11.9-3.7,24.1-4.6,36.3-5.8L78.9,111.5z M115.6,56.5c-0.1,1-0.1,2-0.3,3c-0.4,4-1.3,7.9-2.4,11.7
		L106.3,94c-0.2,0.6-0.4,1.3-0.5,1.9l-11.1,1l15.9-51.3c0.4-1.1,1.6-1.8,2.7-1.4c0.8,0.2,1.3,0.9,1.5,1.6l0.3,1.2
		c0.5,2.2,0.6,4.3,0.6,6.4L115.6,56.5z M208.5,59.4l-14.3-8.9c-0.3,3.1-2.2,5.7-4.8,7c-1.3,0.7-2.2,1.8-2.5,3.2
		c-0.5,3-1.4,8-2.2,10.5L178,94c-0.5,1.9-1.1,3.7-1.6,5.6c-0.4,1.5-0.9,3-1.3,4.5l-0.4,1.3l-0.6,2l-0.4,1.2l-11.3,1l-2.9,0.2l-0.3,0
		l-26.5,2l-32.5,2.4c-2.6,8.4-5.2,16.8-7.7,25.2c-2.4,7.5-4.9,15-7.4,22.6l-1.8,5.5l-4.3,12.8l-0.5,1.4l-1,2.9l-0.1,0.2l-1.6,4.6
		l-7.7,0.5l-2.5,0.2l-5.5,0.4c-7.7,0.5-15.5,1-23.2,1.7c-1.6,0.1-3.1,1.1-3.8,2.6c-0.8,1.7-2.1,3.2-3.8,4.1l28.3,17.6l5.2-16.8
		l10-0.8l-2.8,8.3c-1.3,3.7-2.4,7.6-4.1,11.2c-0.4,0.8-0.8,1.7-1.3,2.5l31.1,19.4c8.7,5.4,19.6,5.8,28.6,1l79.4-42.3
		c9-4.8,14.8-14.1,15.1-24.3l2.4-69.3l-36,2.7l1.5-4.7l1.3-4.3l0.5,0l5.6-0.3c1.9-0.1,3.8-0.1,5.6-0.2c7.1-0.1,14.3,0.2,21.6,1.8
		l0.5-15.4C222.3,74.4,217.1,64.8,208.5,59.4z M136.9,176.2l5-0.3l17.6-56.8l11.3-1.1l-0.7,2.2l-0.7,2.2c-1.7,5.7-3.5,11.4-5.3,17
		c-2.4,7.5-4.9,15-7.3,22.6l-3.7,11.3l-0.7,2.1c0.9,0,1.8,0,2.7,0c6.1,0,12.3,0.5,18.6,2.5l0,0l0.8,0.3c1.2,0.4,1.9,1.7,1.5,2.9
		c-0.3,0.9-1.1,1.5-2,1.6l-24.6,1.7l-0.1,0.3l-7.7,22.5c-1.3,3.7-2.4,7.6-4.1,11.2c-0.9,1.8-1.8,3.6-3,5.3l-0.9,1.3l-1,1.2
		c-0.7,0.8-1.4,1.6-2.2,2.4l-0.9,0.9c-0.9,0.8-2.3,0.7-3.1-0.1c-0.5-0.6-0.7-1.4-0.5-2.1l13-42l-38.1,2.6l-13.2,0.9l1.6-4.6l1.6-4.7
		"/>
</g>
</svg>
